<?xml version="1.0" standalone="no"?>
 <!DOCTYPE svg PUBLIC "-//W3C//DTD SVG 1.1//EN" 
 "http://www.w3.org/Graphics/SVG/1.1/DTD/svg11.dtd"> 
<svg xmlns="http://www.w3.org/2000/svg" version="1.1" 
    width="17.8486cm" height="16.9291cm" viewBox="0 0 70270 66650 ">
<title>SVG Picture created as big_cab_breakout-append-Back.svg date 2012/10/24 22:40:59 </title>
  <desc>Picture generated by PCBNEW </desc>
<g style="fill:#000000; fill-opacity:1;stroke:#000000; stroke-opacity:1;
stroke-linecap:round; stroke-linejoin:round; "
 transform="translate(0 0) scale(1 1)">
</g>
<g style="fill:#000000; fill-opacity:0.0; 
stroke:#000000; stroke-width:150; stroke-opacity:1; 
stroke-linecap:round; stroke-linejoin:round;">
<path d="M1687 45274
L1687 55274
" />
<path d="M34487 55274
L1687 55274
" />
<path d="M34487 55274
L34487 45274
" />
<path d="M1687 45274
L34487 45274
" />
<path d="M1687 56574
L34487 56574
" />
<path d="M34487 66574
L34487 56574
" />
<path d="M34487 66574
L1687 66574
" />
<path d="M1687 56574
L1687 66574
" />
<path d="M1687 33974
L1687 43974
" />
<path d="M34487 43974
L1687 43974
" />
<path d="M34487 43974
L34487 33974
" />
<path d="M1687 33974
L34487 33974
" />
<path d="M1687 11374
L34487 11374
" />
<path d="M34487 21374
L34487 11374
" />
<path d="M34487 21374
L1687 21374
" />
<path d="M1687 11374
L1687 21374
" />
<path d="M1687 22674
L34487 22674
" />
<path d="M34487 32674
L34487 22674
" />
<path d="M34487 32674
L1687 32674
" />
<path d="M1687 22674
L1687 32674
" />
<path d="M35787 22674
L35787 32674
" />
<path d="M68587 32674
L35787 32674
" />
<path d="M68587 32674
L68587 22674
" />
<path d="M35787 22674
L68587 22674
" />
<path d="M35787 11374
L35787 21374
" />
<path d="M68587 21374
L35787 21374
" />
<path d="M68587 21374
L68587 11374
" />
<path d="M35787 11374
L68587 11374
" />
<path d="M35787 33974
L68587 33974
" />
<path d="M68587 43974
L68587 33974
" />
<path d="M68587 43974
L35787 43974
" />
<path d="M35787 33974
L35787 43974
" />
<path d="M35787 56574
L35787 66574
" />
<path d="M68587 66574
L35787 66574
" />
<path d="M68587 66574
L68587 56574
" />
<path d="M35787 56574
L68587 56574
" />
<path d="M35787 45274
L68587 45274
" />
<path d="M68587 55274
L68587 45274
" />
<path d="M68587 55274
L35787 55274
" />
<path d="M35787 45274
L35787 55274
" />
<path d="M17287 74
L57887 74
" />
<path d="M57887 10074
L17287 10074
" />
<path d="M17287 74
L17287 10074
" />
<path d="M57887 10074
L57887 74
" />
</g>
<g style="fill:#000000; fill-opacity:0.0; 
stroke:#000000; stroke-width:19; stroke-opacity:1; 
stroke-linecap:round; stroke-linejoin:round;">
</g>
<g style="fill:#000000; fill-opacity:1.0; 
stroke:#000000; stroke-width:19; stroke-opacity:1; 
stroke-linecap:round; stroke-linejoin:round;">
<circle cx="12681" cy="50035" r="266" /> 
<circle cx="11893" cy="50035" r="266" /> 
<circle cx="16281" cy="50035" r="266" /> 
<circle cx="15493" cy="50035" r="266" /> 
<circle cx="20681" cy="50035" r="266" /> 
<circle cx="19893" cy="50035" r="266" /> 
<circle cx="9081" cy="50035" r="266" /> 
<circle cx="8293" cy="50035" r="266" /> 
<circle cx="27881" cy="50035" r="266" /> 
<circle cx="27093" cy="50035" r="266" /> 
<circle cx="24281" cy="50035" r="266" /> 
<circle cx="23493" cy="50035" r="266" /> 
<circle cx="24281" cy="61335" r="266" /> 
<circle cx="23493" cy="61335" r="266" /> 
<circle cx="27881" cy="61335" r="266" /> 
<circle cx="27093" cy="61335" r="266" /> 
<circle cx="9081" cy="61335" r="266" /> 
<circle cx="8293" cy="61335" r="266" /> 
<circle cx="20681" cy="61335" r="266" /> 
<circle cx="19893" cy="61335" r="266" /> 
<circle cx="16281" cy="61335" r="266" /> 
<circle cx="15493" cy="61335" r="266" /> 
<circle cx="12681" cy="61335" r="266" /> 
<circle cx="11893" cy="61335" r="266" /> 
<circle cx="12681" cy="38735" r="266" /> 
<circle cx="11893" cy="38735" r="266" /> 
<circle cx="16281" cy="38735" r="266" /> 
<circle cx="15493" cy="38735" r="266" /> 
<circle cx="20681" cy="38735" r="266" /> 
<circle cx="19893" cy="38735" r="266" /> 
<circle cx="9081" cy="38735" r="266" /> 
<circle cx="8293" cy="38735" r="266" /> 
<circle cx="27881" cy="38735" r="266" /> 
<circle cx="27093" cy="38735" r="266" /> 
<circle cx="24281" cy="38735" r="266" /> 
<circle cx="23493" cy="38735" r="266" /> 
<circle cx="24281" cy="16135" r="266" /> 
<circle cx="23493" cy="16135" r="266" /> 
<circle cx="27881" cy="16135" r="266" /> 
<circle cx="27093" cy="16135" r="266" /> 
<circle cx="9081" cy="16135" r="266" /> 
<circle cx="8293" cy="16135" r="266" /> 
<circle cx="20681" cy="16135" r="266" /> 
<circle cx="19893" cy="16135" r="266" /> 
<circle cx="16281" cy="16135" r="266" /> 
<circle cx="15493" cy="16135" r="266" /> 
<circle cx="12681" cy="16135" r="266" /> 
<circle cx="11893" cy="16135" r="266" /> 
<circle cx="24281" cy="27435" r="266" /> 
<circle cx="23493" cy="27435" r="266" /> 
<circle cx="27881" cy="27435" r="266" /> 
<circle cx="27093" cy="27435" r="266" /> 
<circle cx="9081" cy="27435" r="266" /> 
<circle cx="8293" cy="27435" r="266" /> 
<circle cx="20681" cy="27435" r="266" /> 
<circle cx="19893" cy="27435" r="266" /> 
<circle cx="16281" cy="27435" r="266" /> 
<circle cx="15493" cy="27435" r="266" /> 
<circle cx="12681" cy="27435" r="266" /> 
<circle cx="11893" cy="27435" r="266" /> 
<circle cx="46781" cy="27435" r="266" /> 
<circle cx="45993" cy="27435" r="266" /> 
<circle cx="50381" cy="27435" r="266" /> 
<circle cx="49593" cy="27435" r="266" /> 
<circle cx="54781" cy="27435" r="266" /> 
<circle cx="53993" cy="27435" r="266" /> 
<circle cx="43181" cy="27435" r="266" /> 
<circle cx="42393" cy="27435" r="266" /> 
<circle cx="61981" cy="27435" r="266" /> 
<circle cx="61193" cy="27435" r="266" /> 
<circle cx="58381" cy="27435" r="266" /> 
<circle cx="57593" cy="27435" r="266" /> 
<circle cx="46781" cy="16135" r="266" /> 
<circle cx="45993" cy="16135" r="266" /> 
<circle cx="50381" cy="16135" r="266" /> 
<circle cx="49593" cy="16135" r="266" /> 
<circle cx="54781" cy="16135" r="266" /> 
<circle cx="53993" cy="16135" r="266" /> 
<circle cx="43181" cy="16135" r="266" /> 
<circle cx="42393" cy="16135" r="266" /> 
<circle cx="61981" cy="16135" r="266" /> 
<circle cx="61193" cy="16135" r="266" /> 
<circle cx="58381" cy="16135" r="266" /> 
<circle cx="57593" cy="16135" r="266" /> 
<circle cx="58381" cy="38735" r="266" /> 
<circle cx="57593" cy="38735" r="266" /> 
<circle cx="61981" cy="38735" r="266" /> 
<circle cx="61193" cy="38735" r="266" /> 
<circle cx="43181" cy="38735" r="266" /> 
<circle cx="42393" cy="38735" r="266" /> 
<circle cx="54781" cy="38735" r="266" /> 
<circle cx="53993" cy="38735" r="266" /> 
<circle cx="50381" cy="38735" r="266" /> 
<circle cx="49593" cy="38735" r="266" /> 
<circle cx="46781" cy="38735" r="266" /> 
<circle cx="45993" cy="38735" r="266" /> 
<circle cx="46781" cy="61335" r="266" /> 
<circle cx="45993" cy="61335" r="266" /> 
<circle cx="50381" cy="61335" r="266" /> 
<circle cx="49593" cy="61335" r="266" /> 
<circle cx="54781" cy="61335" r="266" /> 
<circle cx="53993" cy="61335" r="266" /> 
<circle cx="43181" cy="61335" r="266" /> 
<circle cx="42393" cy="61335" r="266" /> 
<circle cx="61981" cy="61335" r="266" /> 
<circle cx="61193" cy="61335" r="266" /> 
<circle cx="58381" cy="61335" r="266" /> 
<circle cx="57593" cy="61335" r="266" /> 
<circle cx="58381" cy="50035" r="266" /> 
<circle cx="57593" cy="50035" r="266" /> 
<circle cx="61981" cy="50035" r="266" /> 
<circle cx="61193" cy="50035" r="266" /> 
<circle cx="43181" cy="50035" r="266" /> 
<circle cx="42393" cy="50035" r="266" /> 
<circle cx="54781" cy="50035" r="266" /> 
<circle cx="53993" cy="50035" r="266" /> 
<circle cx="50381" cy="50035" r="266" /> 
<circle cx="49593" cy="50035" r="266" /> 
<circle cx="46781" cy="50035" r="266" /> 
<circle cx="45993" cy="50035" r="266" /> 
<circle cx="51381" cy="4835" r="266" /> 
<circle cx="50593" cy="4835" r="266" /> 
<circle cx="40181" cy="4835" r="266" /> 
<circle cx="39393" cy="4835" r="266" /> 
<circle cx="24581" cy="4835" r="266" /> 
<circle cx="23793" cy="4835" r="266" /> 
<circle cx="43581" cy="4835" r="266" /> 
<circle cx="42793" cy="4835" r="266" /> 
<circle cx="27981" cy="4835" r="266" /> 
<circle cx="27193" cy="4835" r="266" /> 
<circle cx="47981" cy="4835" r="266" /> 
<circle cx="47193" cy="4835" r="266" /> 
<circle cx="32381" cy="4835" r="266" /> 
<circle cx="31593" cy="4835" r="266" /> 
<circle cx="35781" cy="4835" r="266" /> 
<circle cx="34993" cy="4835" r="266" /> 
</g>
<g style="fill:#FFFFFF; fill-opacity:1.0; 
stroke:#FFFFFF; stroke-width:19; stroke-opacity:1; 
stroke-linecap:round; stroke-linejoin:round;">
<circle cx="12681" cy="50035" r="128.5" /> 
<circle cx="11893" cy="50035" r="128.5" /> 
<circle cx="16281" cy="50035" r="128.5" /> 
<circle cx="15493" cy="50035" r="128.5" /> 
<circle cx="20681" cy="50035" r="128.5" /> 
<circle cx="19893" cy="50035" r="128.5" /> 
<circle cx="9081" cy="50035" r="128.5" /> 
<circle cx="8293" cy="50035" r="128.5" /> 
<circle cx="27881" cy="50035" r="128.5" /> 
<circle cx="27093" cy="50035" r="128.5" /> 
<circle cx="24281" cy="50035" r="128.5" /> 
<circle cx="23493" cy="50035" r="128.5" /> 
<circle cx="24281" cy="61335" r="128.5" /> 
<circle cx="23493" cy="61335" r="128.5" /> 
<circle cx="27881" cy="61335" r="128.5" /> 
<circle cx="27093" cy="61335" r="128.5" /> 
<circle cx="9081" cy="61335" r="128.5" /> 
<circle cx="8293" cy="61335" r="128.5" /> 
<circle cx="20681" cy="61335" r="128.5" /> 
<circle cx="19893" cy="61335" r="128.5" /> 
<circle cx="16281" cy="61335" r="128.5" /> 
<circle cx="15493" cy="61335" r="128.5" /> 
<circle cx="12681" cy="61335" r="128.5" /> 
<circle cx="11893" cy="61335" r="128.5" /> 
<circle cx="12681" cy="38735" r="128.5" /> 
<circle cx="11893" cy="38735" r="128.5" /> 
<circle cx="16281" cy="38735" r="128.5" /> 
<circle cx="15493" cy="38735" r="128.5" /> 
<circle cx="20681" cy="38735" r="128.5" /> 
<circle cx="19893" cy="38735" r="128.5" /> 
<circle cx="9081" cy="38735" r="128.5" /> 
<circle cx="8293" cy="38735" r="128.5" /> 
<circle cx="27881" cy="38735" r="128.5" /> 
<circle cx="27093" cy="38735" r="128.5" /> 
<circle cx="24281" cy="38735" r="128.5" /> 
<circle cx="23493" cy="38735" r="128.5" /> 
<circle cx="24281" cy="16135" r="128.5" /> 
<circle cx="23493" cy="16135" r="128.5" /> 
<circle cx="27881" cy="16135" r="128.5" /> 
<circle cx="27093" cy="16135" r="128.5" /> 
<circle cx="9081" cy="16135" r="128.5" /> 
<circle cx="8293" cy="16135" r="128.5" /> 
<circle cx="20681" cy="16135" r="128.5" /> 
<circle cx="19893" cy="16135" r="128.5" /> 
<circle cx="16281" cy="16135" r="128.5" /> 
<circle cx="15493" cy="16135" r="128.5" /> 
<circle cx="12681" cy="16135" r="128.5" /> 
<circle cx="11893" cy="16135" r="128.5" /> 
<circle cx="24281" cy="27435" r="128.5" /> 
<circle cx="23493" cy="27435" r="128.5" /> 
<circle cx="27881" cy="27435" r="128.5" /> 
<circle cx="27093" cy="27435" r="128.5" /> 
<circle cx="9081" cy="27435" r="128.5" /> 
<circle cx="8293" cy="27435" r="128.5" /> 
<circle cx="20681" cy="27435" r="128.5" /> 
<circle cx="19893" cy="27435" r="128.5" /> 
<circle cx="16281" cy="27435" r="128.5" /> 
<circle cx="15493" cy="27435" r="128.5" /> 
<circle cx="12681" cy="27435" r="128.5" /> 
<circle cx="11893" cy="27435" r="128.5" /> 
<circle cx="46781" cy="27435" r="128.5" /> 
<circle cx="45993" cy="27435" r="128.5" /> 
<circle cx="50381" cy="27435" r="128.5" /> 
<circle cx="49593" cy="27435" r="128.5" /> 
<circle cx="54781" cy="27435" r="128.5" /> 
<circle cx="53993" cy="27435" r="128.5" /> 
<circle cx="43181" cy="27435" r="128.5" /> 
<circle cx="42393" cy="27435" r="128.5" /> 
<circle cx="61981" cy="27435" r="128.5" /> 
<circle cx="61193" cy="27435" r="128.5" /> 
<circle cx="58381" cy="27435" r="128.5" /> 
<circle cx="57593" cy="27435" r="128.5" /> 
<circle cx="46781" cy="16135" r="128.5" /> 
<circle cx="45993" cy="16135" r="128.5" /> 
<circle cx="50381" cy="16135" r="128.5" /> 
<circle cx="49593" cy="16135" r="128.5" /> 
<circle cx="54781" cy="16135" r="128.5" /> 
<circle cx="53993" cy="16135" r="128.5" /> 
<circle cx="43181" cy="16135" r="128.5" /> 
<circle cx="42393" cy="16135" r="128.5" /> 
<circle cx="61981" cy="16135" r="128.5" /> 
<circle cx="61193" cy="16135" r="128.5" /> 
<circle cx="58381" cy="16135" r="128.5" /> 
<circle cx="57593" cy="16135" r="128.5" /> 
<circle cx="58381" cy="38735" r="128.5" /> 
<circle cx="57593" cy="38735" r="128.5" /> 
<circle cx="61981" cy="38735" r="128.5" /> 
<circle cx="61193" cy="38735" r="128.5" /> 
<circle cx="43181" cy="38735" r="128.5" /> 
<circle cx="42393" cy="38735" r="128.5" /> 
<circle cx="54781" cy="38735" r="128.5" /> 
<circle cx="53993" cy="38735" r="128.5" /> 
<circle cx="50381" cy="38735" r="128.5" /> 
<circle cx="49593" cy="38735" r="128.5" /> 
<circle cx="46781" cy="38735" r="128.5" /> 
<circle cx="45993" cy="38735" r="128.5" /> 
<circle cx="46781" cy="61335" r="128.5" /> 
<circle cx="45993" cy="61335" r="128.5" /> 
<circle cx="50381" cy="61335" r="128.5" /> 
<circle cx="49593" cy="61335" r="128.5" /> 
<circle cx="54781" cy="61335" r="128.5" /> 
<circle cx="53993" cy="61335" r="128.5" /> 
<circle cx="43181" cy="61335" r="128.5" /> 
<circle cx="42393" cy="61335" r="128.5" /> 
<circle cx="61981" cy="61335" r="128.5" /> 
<circle cx="61193" cy="61335" r="128.5" /> 
<circle cx="58381" cy="61335" r="128.5" /> 
<circle cx="57593" cy="61335" r="128.5" /> 
<circle cx="58381" cy="50035" r="128.5" /> 
<circle cx="57593" cy="50035" r="128.5" /> 
<circle cx="61981" cy="50035" r="128.5" /> 
<circle cx="61193" cy="50035" r="128.5" /> 
<circle cx="43181" cy="50035" r="128.5" /> 
<circle cx="42393" cy="50035" r="128.5" /> 
<circle cx="54781" cy="50035" r="128.5" /> 
<circle cx="53993" cy="50035" r="128.5" /> 
<circle cx="50381" cy="50035" r="128.5" /> 
<circle cx="49593" cy="50035" r="128.5" /> 
<circle cx="46781" cy="50035" r="128.5" /> 
<circle cx="45993" cy="50035" r="128.5" /> 
<circle cx="51381" cy="4835" r="128.5" /> 
<circle cx="50593" cy="4835" r="128.5" /> 
<circle cx="40181" cy="4835" r="128.5" /> 
<circle cx="39393" cy="4835" r="128.5" /> 
<circle cx="24581" cy="4835" r="128.5" /> 
<circle cx="23793" cy="4835" r="128.5" /> 
<circle cx="43581" cy="4835" r="128.5" /> 
<circle cx="42793" cy="4835" r="128.5" /> 
<circle cx="27981" cy="4835" r="128.5" /> 
<circle cx="27193" cy="4835" r="128.5" /> 
<circle cx="47981" cy="4835" r="128.5" /> 
<circle cx="47193" cy="4835" r="128.5" /> 
<circle cx="32381" cy="4835" r="128.5" /> 
<circle cx="31593" cy="4835" r="128.5" /> 
<circle cx="35781" cy="4835" r="128.5" /> 
<circle cx="34993" cy="4835" r="128.5" /> 
</g> 
</svg>
